# xmcd CD database file generated by Grip 2.91
# 
# Track frame offsets:
#       150
#       27957
#       50827
#       56765
# 
# Disc length: 1049 seconds
# 
# Revision: 3
# Processed by: cddbd v1.4b41PL1 Copyright (c) Steve Scherf et al.
# Submitted via: Grip 2.91
# 
DISCID=34041704
DTITLE=Faithless - Sunday 8PM - Pinkpop Live Trax
DYEAR=1900
DGENRE=
TTITLE0=God is a dj
TTITLE1=Bring my family back
TTITLE2=Do my thing
TTITLE3=If lovin' you is wrong
EXTD=
EXTT0=
EXTT1=
EXTT2=
EXTT3=
PLAYORDER=
